<mxfile host="Electron" agent="Mozilla/5.0 (Windows NT 10.0; Win64; x64) AppleWebKit/537.36 (KHTML, like Gecko) draw.io/25.0.2 Chrome/128.0.6613.186 Electron/32.2.5 Safari/537.36" version="25.0.2">
  <diagram name="Page-1" id="gEKzkednMWPR4ZsR4w4l">
    <mxGraphModel dx="1050" dy="764" grid="1" gridSize="10" guides="1" tooltips="1" connect="1" arrows="1" fold="1" page="1" pageScale="1" pageWidth="850" pageHeight="1100" math="0" shadow="0">
      <root>
        <mxCell id="0" />
        <mxCell id="1" parent="0" />
        <mxCell id="kqtzl4Vi8DQOrqhqygTI-9" style="edgeStyle=orthogonalEdgeStyle;rounded=0;orthogonalLoop=1;jettySize=auto;html=1;exitX=0.5;exitY=1;exitDx=0;exitDy=0;entryX=0.5;entryY=0;entryDx=0;entryDy=0;" edge="1" parent="1" source="kqtzl4Vi8DQOrqhqygTI-2" target="kqtzl4Vi8DQOrqhqygTI-3">
          <mxGeometry relative="1" as="geometry" />
        </mxCell>
        <mxCell id="kqtzl4Vi8DQOrqhqygTI-2" value="Start" style="ellipse;whiteSpace=wrap;html=1;" vertex="1" parent="1">
          <mxGeometry x="50" y="40" width="120" height="80" as="geometry" />
        </mxCell>
        <mxCell id="kqtzl4Vi8DQOrqhqygTI-10" style="edgeStyle=orthogonalEdgeStyle;rounded=0;orthogonalLoop=1;jettySize=auto;html=1;exitX=0.5;exitY=1;exitDx=0;exitDy=0;entryX=0.5;entryY=0;entryDx=0;entryDy=0;" edge="1" parent="1" source="kqtzl4Vi8DQOrqhqygTI-3" target="kqtzl4Vi8DQOrqhqygTI-6">
          <mxGeometry relative="1" as="geometry" />
        </mxCell>
        <mxCell id="kqtzl4Vi8DQOrqhqygTI-3" value="Init LCD" style="rounded=0;whiteSpace=wrap;html=1;" vertex="1" parent="1">
          <mxGeometry x="50" y="150" width="120" height="60" as="geometry" />
        </mxCell>
        <mxCell id="kqtzl4Vi8DQOrqhqygTI-11" style="edgeStyle=orthogonalEdgeStyle;rounded=0;orthogonalLoop=1;jettySize=auto;html=1;exitX=0.5;exitY=1;exitDx=0;exitDy=0;entryX=0.5;entryY=0;entryDx=0;entryDy=0;" edge="1" parent="1" source="kqtzl4Vi8DQOrqhqygTI-6" target="kqtzl4Vi8DQOrqhqygTI-8">
          <mxGeometry relative="1" as="geometry" />
        </mxCell>
        <mxCell id="kqtzl4Vi8DQOrqhqygTI-6" value="Create Task Queues and Semaphores" style="rounded=0;whiteSpace=wrap;html=1;" vertex="1" parent="1">
          <mxGeometry x="50" y="240" width="120" height="60" as="geometry" />
        </mxCell>
        <mxCell id="kqtzl4Vi8DQOrqhqygTI-16" style="edgeStyle=orthogonalEdgeStyle;rounded=0;orthogonalLoop=1;jettySize=auto;html=1;exitX=0.5;exitY=1;exitDx=0;exitDy=0;entryX=0.5;entryY=0;entryDx=0;entryDy=0;" edge="1" parent="1" source="kqtzl4Vi8DQOrqhqygTI-8" target="kqtzl4Vi8DQOrqhqygTI-12">
          <mxGeometry relative="1" as="geometry" />
        </mxCell>
        <mxCell id="kqtzl4Vi8DQOrqhqygTI-8" value="Create FreeRTOS Tasks" style="rounded=0;whiteSpace=wrap;html=1;" vertex="1" parent="1">
          <mxGeometry x="50" y="330" width="120" height="60" as="geometry" />
        </mxCell>
        <mxCell id="kqtzl4Vi8DQOrqhqygTI-17" style="edgeStyle=orthogonalEdgeStyle;rounded=0;orthogonalLoop=1;jettySize=auto;html=1;exitX=0.5;exitY=1;exitDx=0;exitDy=0;entryX=0.5;entryY=0;entryDx=0;entryDy=0;" edge="1" parent="1" source="kqtzl4Vi8DQOrqhqygTI-12" target="kqtzl4Vi8DQOrqhqygTI-14">
          <mxGeometry relative="1" as="geometry" />
        </mxCell>
        <mxCell id="kqtzl4Vi8DQOrqhqygTI-12" value="Task: wifiAndTimeTask" style="rounded=0;whiteSpace=wrap;html=1;" vertex="1" parent="1">
          <mxGeometry x="50" y="420" width="120" height="60" as="geometry" />
        </mxCell>
        <mxCell id="kqtzl4Vi8DQOrqhqygTI-18" style="edgeStyle=orthogonalEdgeStyle;rounded=0;orthogonalLoop=1;jettySize=auto;html=1;exitX=0.5;exitY=1;exitDx=0;exitDy=0;entryX=0.5;entryY=0;entryDx=0;entryDy=0;" edge="1" parent="1" source="kqtzl4Vi8DQOrqhqygTI-14" target="kqtzl4Vi8DQOrqhqygTI-15">
          <mxGeometry relative="1" as="geometry" />
        </mxCell>
        <mxCell id="kqtzl4Vi8DQOrqhqygTI-14" value="Task: readSensorTask" style="rounded=0;whiteSpace=wrap;html=1;" vertex="1" parent="1">
          <mxGeometry x="50" y="510" width="120" height="60" as="geometry" />
        </mxCell>
        <mxCell id="kqtzl4Vi8DQOrqhqygTI-22" style="edgeStyle=orthogonalEdgeStyle;rounded=0;orthogonalLoop=1;jettySize=auto;html=1;exitX=0.5;exitY=1;exitDx=0;exitDy=0;entryX=0.5;entryY=0;entryDx=0;entryDy=0;" edge="1" parent="1" source="kqtzl4Vi8DQOrqhqygTI-15" target="kqtzl4Vi8DQOrqhqygTI-21">
          <mxGeometry relative="1" as="geometry" />
        </mxCell>
        <mxCell id="kqtzl4Vi8DQOrqhqygTI-15" value="Task: logDataTask" style="rounded=0;whiteSpace=wrap;html=1;" vertex="1" parent="1">
          <mxGeometry x="50" y="600" width="120" height="60" as="geometry" />
        </mxCell>
        <mxCell id="kqtzl4Vi8DQOrqhqygTI-21" value="End" style="ellipse;whiteSpace=wrap;html=1;" vertex="1" parent="1">
          <mxGeometry x="50" y="680" width="120" height="80" as="geometry" />
        </mxCell>
        <mxCell id="kqtzl4Vi8DQOrqhqygTI-30" style="edgeStyle=orthogonalEdgeStyle;rounded=0;orthogonalLoop=1;jettySize=auto;html=1;exitX=0.5;exitY=1;exitDx=0;exitDy=0;entryX=0.5;entryY=0;entryDx=0;entryDy=0;" edge="1" parent="1" source="kqtzl4Vi8DQOrqhqygTI-23" target="kqtzl4Vi8DQOrqhqygTI-24">
          <mxGeometry relative="1" as="geometry" />
        </mxCell>
        <mxCell id="kqtzl4Vi8DQOrqhqygTI-23" value="&lt;br&gt;Task: wifiAndTimeTask&lt;div&gt;&lt;br&gt;&lt;/div&gt;" style="rounded=1;whiteSpace=wrap;html=1;" vertex="1" parent="1">
          <mxGeometry x="230" y="50" width="120" height="60" as="geometry" />
        </mxCell>
        <mxCell id="kqtzl4Vi8DQOrqhqygTI-31" style="edgeStyle=orthogonalEdgeStyle;rounded=0;orthogonalLoop=1;jettySize=auto;html=1;exitX=0.5;exitY=1;exitDx=0;exitDy=0;entryX=0.5;entryY=0;entryDx=0;entryDy=0;" edge="1" parent="1" source="kqtzl4Vi8DQOrqhqygTI-24" target="kqtzl4Vi8DQOrqhqygTI-25">
          <mxGeometry relative="1" as="geometry" />
        </mxCell>
        <mxCell id="kqtzl4Vi8DQOrqhqygTI-24" value="Init RTC" style="rounded=0;whiteSpace=wrap;html=1;" vertex="1" parent="1">
          <mxGeometry x="230" y="150" width="120" height="60" as="geometry" />
        </mxCell>
        <mxCell id="kqtzl4Vi8DQOrqhqygTI-32" style="edgeStyle=orthogonalEdgeStyle;rounded=0;orthogonalLoop=1;jettySize=auto;html=1;exitX=0.5;exitY=1;exitDx=0;exitDy=0;entryX=0.5;entryY=0;entryDx=0;entryDy=0;" edge="1" parent="1" source="kqtzl4Vi8DQOrqhqygTI-25" target="kqtzl4Vi8DQOrqhqygTI-26">
          <mxGeometry relative="1" as="geometry" />
        </mxCell>
        <mxCell id="kqtzl4Vi8DQOrqhqygTI-25" value="Connect WiFi" style="rounded=0;whiteSpace=wrap;html=1;" vertex="1" parent="1">
          <mxGeometry x="230" y="240" width="120" height="60" as="geometry" />
        </mxCell>
        <mxCell id="kqtzl4Vi8DQOrqhqygTI-33" style="edgeStyle=orthogonalEdgeStyle;rounded=0;orthogonalLoop=1;jettySize=auto;html=1;exitX=0.5;exitY=1;exitDx=0;exitDy=0;entryX=0.5;entryY=0;entryDx=0;entryDy=0;" edge="1" parent="1" source="kqtzl4Vi8DQOrqhqygTI-26" target="kqtzl4Vi8DQOrqhqygTI-27">
          <mxGeometry relative="1" as="geometry" />
        </mxCell>
        <mxCell id="kqtzl4Vi8DQOrqhqygTI-26" value="Sync Time" style="rounded=0;whiteSpace=wrap;html=1;" vertex="1" parent="1">
          <mxGeometry x="230" y="330" width="120" height="60" as="geometry" />
        </mxCell>
        <mxCell id="kqtzl4Vi8DQOrqhqygTI-34" style="edgeStyle=orthogonalEdgeStyle;rounded=0;orthogonalLoop=1;jettySize=auto;html=1;exitX=0.5;exitY=1;exitDx=0;exitDy=0;entryX=0.5;entryY=0;entryDx=0;entryDy=0;" edge="1" parent="1" source="kqtzl4Vi8DQOrqhqygTI-27" target="kqtzl4Vi8DQOrqhqygTI-28">
          <mxGeometry relative="1" as="geometry" />
        </mxCell>
        <mxCell id="kqtzl4Vi8DQOrqhqygTI-27" value="Init Sensor" style="rounded=0;whiteSpace=wrap;html=1;" vertex="1" parent="1">
          <mxGeometry x="230" y="420" width="120" height="60" as="geometry" />
        </mxCell>
        <mxCell id="kqtzl4Vi8DQOrqhqygTI-35" style="edgeStyle=orthogonalEdgeStyle;rounded=0;orthogonalLoop=1;jettySize=auto;html=1;exitX=0.5;exitY=1;exitDx=0;exitDy=0;entryX=0.5;entryY=0;entryDx=0;entryDy=0;" edge="1" parent="1" source="kqtzl4Vi8DQOrqhqygTI-28" target="kqtzl4Vi8DQOrqhqygTI-29">
          <mxGeometry relative="1" as="geometry" />
        </mxCell>
        <mxCell id="kqtzl4Vi8DQOrqhqygTI-28" value="Signal Semaphore for Next Task" style="rounded=0;whiteSpace=wrap;html=1;" vertex="1" parent="1">
          <mxGeometry x="230" y="510" width="120" height="60" as="geometry" />
        </mxCell>
        <mxCell id="kqtzl4Vi8DQOrqhqygTI-29" value="End" style="ellipse;whiteSpace=wrap;html=1;" vertex="1" parent="1">
          <mxGeometry x="230" y="600" width="120" height="80" as="geometry" />
        </mxCell>
      </root>
    </mxGraphModel>
  </diagram>
</mxfile>
